<svg width="236" height="230" viewBox="0 0 236 230" fill="none" xmlns="http://www.w3.org/2000/svg">
<g clip-path="url(#clip0_30_2014)">
<path d="M149.585 51.7263H86.094C84.6471 51.728 83.26 52.3036 82.237 53.3267C81.2139 54.3497 80.6384 55.7368 80.6366 57.1836V198.293L79.909 198.515L64.3336 203.284C63.5955 203.51 62.7982 203.432 62.1168 203.07C61.4354 202.708 60.9255 202.09 60.6991 201.353L14.3697 50.02C14.1442 49.2818 14.2211 48.4843 14.5833 47.8028C14.9456 47.1212 15.5636 46.6114 16.3016 46.3854L40.3031 39.0361L109.884 17.7379L133.886 10.3886C134.251 10.2762 134.635 10.2369 135.015 10.273C135.396 10.3091 135.765 10.4199 136.103 10.599C136.441 10.7781 136.74 11.022 136.983 11.3168C137.226 11.6116 137.409 11.9514 137.521 12.3169L149.363 50.9986L149.585 51.7263Z" fill="#F2F2F2"/>
<path d="M163.439 50.9986L149.166 4.37816C148.929 3.60138 148.541 2.879 148.024 2.25231C147.507 1.62561 146.872 1.10688 146.155 0.725762C145.437 0.344641 144.652 0.108594 143.843 0.0311181C143.035 -0.0463578 142.219 0.0362559 141.442 0.27423L107.698 10.6032L38.12 31.9051L4.37535 42.2377C2.80775 42.719 1.49518 43.8027 0.725739 45.2508C-0.0436982 46.6989 -0.207137 48.3932 0.271303 49.9617L49.0528 209.291C49.4415 210.557 50.2257 211.665 51.2905 212.453C52.3552 213.241 53.6443 213.667 54.9687 213.668C55.5817 213.668 56.1912 213.576 56.7768 213.395L79.9088 206.315L80.6364 206.089V205.329L79.9088 205.551L56.5622 212.7C55.1785 213.122 53.684 212.978 52.4066 212.299C51.1291 211.62 50.1729 210.463 49.7478 209.08L0.969994 49.747C0.759373 49.0619 0.685966 48.342 0.753974 47.6285C0.821982 46.9149 1.03006 46.2218 1.36632 45.5889C1.70257 44.9559 2.16039 44.3954 2.71355 43.9396C3.2667 43.4838 3.90434 43.1416 4.58994 42.9326L38.3346 32.6L107.912 11.3017L141.657 0.969141C142.177 0.81044 142.718 0.729522 143.261 0.729015C144.428 0.731635 145.564 1.10781 146.501 1.80245C147.439 2.49709 148.129 3.47368 148.471 4.58919L162.679 50.9986L162.904 51.7262H163.661L163.439 50.9986Z" fill="#3F3D56"/>
<path d="M44.6341 46.5043C43.9329 46.5038 43.2503 46.2786 42.6864 45.8617C42.1226 45.4448 41.7071 44.8582 41.5011 44.188L36.8149 28.8812C36.689 28.4701 36.6453 28.0381 36.6863 27.6101C36.7274 27.182 36.8523 26.7662 37.054 26.3865C37.2558 26.0067 37.5304 25.6704 37.8621 25.3968C38.1938 25.1232 38.5762 24.9176 38.9874 24.7918L102.998 5.19484C103.829 4.94144 104.726 5.02786 105.492 5.43513C106.259 5.84239 106.833 6.53722 107.088 7.36712L111.774 22.674C112.027 23.5044 111.941 24.4013 111.534 25.168C111.126 25.9347 110.432 26.5086 109.602 26.7637L45.5908 46.3606C45.2808 46.4557 44.9584 46.5042 44.6341 46.5043Z" fill="#6F6F6F"/>
<path d="M69.1822 16.3556C73.2009 16.3556 76.4587 13.0978 76.4587 9.07909C76.4587 5.0604 73.2009 1.80261 69.1822 1.80261C65.1636 1.80261 61.9058 5.0604 61.9058 9.07909C61.9058 13.0978 65.1636 16.3556 69.1822 16.3556Z" fill="#6F6F6F"/>
<path d="M69.1824 13.6868C71.7272 13.6868 73.7901 11.6239 73.7901 9.07913C73.7901 6.53437 71.7272 4.47144 69.1824 4.47144C66.6376 4.47144 64.5747 6.53437 64.5747 9.07913C64.5747 11.6239 66.6376 13.6868 69.1824 13.6868Z" fill="white"/>
<path d="M219.253 211.809H96.281C95.4611 211.808 94.675 211.482 94.0953 210.902C93.5155 210.322 93.1894 209.536 93.1885 208.716V61.3675C93.1894 60.5476 93.5155 59.7616 94.0953 59.1818C94.675 58.6021 95.4611 58.2759 96.281 58.275H219.253C220.073 58.276 220.859 58.6021 221.439 59.1818C222.019 59.7616 222.345 60.5476 222.346 61.3675V208.716C222.345 209.536 222.019 210.322 221.439 210.902C220.859 211.482 220.073 211.808 219.253 211.809Z" fill="#E6E6E6"/>
<path d="M162.679 50.9987H86.0937C84.454 51.001 82.8822 51.6534 81.7228 52.8128C80.5634 53.9722 79.911 55.544 79.9087 57.1837V205.551L80.6363 205.329V57.1837C80.6381 55.7368 81.2136 54.3497 82.2367 53.3267C83.2598 52.3036 84.6469 51.7281 86.0937 51.7263H162.904L162.679 50.9987ZM229.44 50.9987H86.0937C84.454 51.001 82.8822 51.6534 81.7228 52.8128C80.5634 53.9722 79.911 55.544 79.9087 57.1837V223.815C79.911 225.455 80.5634 227.027 81.7228 228.186C82.8822 229.345 84.454 229.998 86.0937 230H229.44C231.08 229.998 232.652 229.345 233.811 228.186C234.971 227.027 235.623 225.455 235.625 223.815V57.1837C235.623 55.544 234.971 53.9722 233.811 52.8128C232.652 51.6534 231.08 51.001 229.44 50.9987ZM234.898 223.815C234.896 225.262 234.32 226.649 233.297 227.672C232.274 228.695 230.887 229.271 229.44 229.272H86.0937C84.6469 229.271 83.2598 228.695 82.2367 227.672C81.2136 226.649 80.6381 225.262 80.6363 223.815V57.1837C80.6381 55.7368 81.2136 54.3497 82.2367 53.3267C83.2598 52.3036 84.6469 51.7281 86.0937 51.7263H229.44C230.887 51.7281 232.274 52.3036 233.297 53.3267C234.32 54.3497 234.896 55.7368 234.898 57.1837V223.815Z" fill="#3F3D56"/>
<path d="M191.239 67.0068H124.295C123.427 67.0058 122.595 66.6605 121.981 66.0467C121.367 65.4328 121.022 64.6005 121.021 63.7324V47.7241C121.022 46.856 121.367 46.0237 121.981 45.4098C122.595 44.796 123.427 44.4507 124.295 44.4497H191.239C192.107 44.4507 192.939 44.796 193.553 45.4098C194.167 46.0237 194.512 46.856 194.513 47.7241V63.7324C194.512 64.6005 194.167 65.4328 193.553 66.0467C192.939 66.6605 192.107 67.0058 191.239 67.0068Z" fill="#6F6F6F"/>
<path d="M157.767 45.5412C161.786 45.5412 165.044 42.2835 165.044 38.2648C165.044 34.2461 161.786 30.9883 157.767 30.9883C153.749 30.9883 150.491 34.2461 150.491 38.2648C150.491 42.2835 153.749 45.5412 157.767 45.5412Z" fill="#6F6F6F"/>
<path d="M157.767 42.6969C160.215 42.6969 162.199 40.7126 162.199 38.2648C162.199 35.8171 160.215 33.8328 157.767 33.8328C155.319 33.8328 153.335 35.8171 153.335 38.2648C153.335 40.7126 155.319 42.6969 157.767 42.6969Z" fill="white"/>
</g>
<defs>
<clipPath id="clip0_30_2014">
<rect width="235.626" height="230" fill="white"/>
</clipPath>
</defs>
</svg>
